{"title":"The Brotherhood V: Alumni (2009) DVD RIP Gay Intrest","uid":9495592,"size":578488677,"categoryP":"video","categoryS":"movies","magnet":"?xt=urn:btih:f342d787d1c231f5bf72b015e4cf221655cbbfa7&amp;dn=+The+Brotherhood+V%3A+Alumni+%282009%29+DVD+RIP+Gay+Intrest&amp;tr=udp%3A%2F%2Ftracker.openbittorrent.com%3A80&amp;tr=udp%3A%2F%2Fopen.demonii.com%3A1337&amp;tr=udp%3A%2F%2Ftracker.coppersurfer.tk%3A6969&amp;tr=udp%3A%2F%2Fexodus.desync.com%3A6969","seeders":2,"leechers":1,"uploader":null,"files":-1,"time":1390097200,"description":" &lt;a href=&quot;http://www.imdb.com/title/tt1283540/&quot; rel=&quot;nofollow&quot; target=&quot;_NEW&quot;&gt;http://www.imdb.com/title/tt1283540/&lt;/a&gt;\n\n\n\nA year after a mean-spirited prom prank turned deadly, the most popular students of \n\nSunnydale High are summoned back for a surprise reunion, only to find themselves at \n\nthe mercy of a relentless killer.\n\n\n\nFormat                                   : MPEG-4\nFormat profile                           : Base Media / Version 2\nCodec ID                                 : mp42\nFile size                                : 552 MiB\nDuration                                 : 1h 26mn\nOverall bit rate mode                    : Variable\nOverall bit rate                         : 891 Kbps\nEncoded date                             : UTC 2013-11-11 09:31:58\nTagged date                              : UTC 2013-11-11 10:31:56\nWriting application                      : HandBrake 0.9.9 2013052900\n\nVideo\nID                                       : 1\nFormat                                   : AVC\nFormat/Info                              : Advanced Video Codec\nFormat profile                           : &lt;a class=&quot;__cf_email__&quot; href=&quot;/cdn-cgi/l/email-protection&quot; data-cfemail=&quot;4b03222c230b077e6579&quot;&gt;[email&amp;#160;protected]&lt;/a&gt;&lt;script cf-hash='f9e31' type=&quot;text/javascript&quot;&gt;\n/* &lt;![CDATA[ */!function(){try{var t=&quot;currentScript&quot;in document?document.currentScript:function(){for(var t=document.getElementsByTagName(&quot;script&quot;),e=t.length;e--;)if(t[e].getAttribute(&quot;cf-hash&quot;))return t[e]}();if(t&amp;&amp;t.previousSibling){var e,r,n,i,c=t.previousSibling,a=c.getAttribute(&quot;data-cfemail&quot;);if(a){for(e=&quot;&quot;,r=parseInt(a.substr(0,2),16),n=2;a.length-n;n+=2)i=parseInt(a.substr(n,2),16)^r,e+=String.fromCharCode(i);e=document.createTextNode(e),c.parentNode.replaceChild(e,c)}}}catch(u){}}();/* ]]&gt; */&lt;/script&gt;\nFormat settings, CABAC                   : Yes\nFormat settings, ReFrames                : 5 frames\nCodec ID                                 : avc1\nCodec ID/Info                            : Advanced Video Coding\nDuration                                 : 1h 26mn\nBit rate                                 : 721 Kbps\nWidth                                    : 720 pixels\nHeight                                   : 480 pixels\nDisplay aspect ratio                     : 16:9\nFrame rate mode                          : Variable\nFrame rate                               : 24.379 fps\nMinimum frame rate                       : 19.973 fps\nMaximum frame rate                       : 29.970 fps\nStandard                                 : NTSC\nColor space                              : YUV\nChroma subsampling                       : 4:2:0\nBit depth                                : 8 bits\nScan type                                : Progressive\nBits/(Pixel*Frame)                       : 0.086\nStream size                              : 447 MiB (81%)\nWriting library                          : x264 core 130 r2273 b3065e6\nEncoding settings                        : cabac=1 / ref=5 / deblock=1:0:0 / \nEncoded date                             : UTC 2013-11-11 09:31:58\nTagged date                              : UTC 2013-11-11 10:31:56\nColor primaries                          : BT.601 NTSC\nTransfer characteristics                 : BT.709\nMatrix coefficients                      : BT.601\n\nAudio\nID                                       : 2\nFormat                                   : AAC\nFormat/Info                              : Advanced Audio Codec\nFormat profile                           : LC\nCodec ID                                 : 40\nDuration                                 : 1h 26mn\nBit rate mode                            : Variable\nBit rate                                 : 160 Kbps\nMaximum bit rate                         : 285 Kbps\nChannel(s)                               : 2 channels\nChannel positions                        : Front: L R\nSampling rate                            : 48.0 KHz\nCompression mode                         : Lossy\nStream size                              : 99.1 MiB (18%)\nLanguage                                 : English\nEncoded date                             : UTC 2013-11-11 09:31:58\nTagged date                              : UTC 2013-11-11 10:31:56\n","torrent":{"xt":"urn:btih:f342d787d1c231f5bf72b015e4cf221655cbbfa7","amp;dn":"+The+Brotherhood+V%3A+Alumni+%282009%29+DVD+RIP+Gay+Intrest","amp;tr":["udp%3A%2F%2Ftracker.openbittorrent.com%3A80","udp%3A%2F%2Fopen.demonii.com%3A1337","udp%3A%2F%2Ftracker.coppersurfer.tk%3A6969","udp%3A%2F%2Fexodus.desync.com%3A6969"],"infoHash":"f342d787d1c231f5bf72b015e4cf221655cbbfa7","infoHashBuffer":{"type":"Buffer","data":[243,66,215,135,209,194,49,245,191,114,176,21,228,207,34,22,85,203,191,167]},"announce":[],"urlList":[]}}